<svg width="48" height="48" viewBox="0 0 48 48" fill="none" xmlns="http://www.w3.org/2000/svg">
<path d="M46.0553 46.1123C45.588 46.5797 45.0332 46.9505 44.4226 47.2034C43.8119 47.4564 43.1575 47.5866 42.4965 47.5866C41.8356 47.5866 41.1811 47.4564 40.5704 47.2034C39.9598 46.9505 39.405 46.5797 38.9377 46.1123L34.2031 41.377L41.3693 34.3086L46.0553 38.9924C46.9995 39.9366 47.5299 41.2171 47.5299 42.5523C47.5299 43.8876 46.9995 45.1681 46.0553 46.1123Z" fill="#FF9854"/>
<path d="M46.0553 46.1123C45.7296 46.438 45.3715 46.7086 44.9906 46.9255C45.5388 45.9669 45.7564 44.8545 45.6098 43.76C45.4633 42.6654 44.9607 41.6495 44.1796 40.8689L39.4936 36.1851L34.2171 41.3909L34.2031 41.3777L41.3693 34.3086L46.0553 38.9924C46.9995 39.9366 47.5299 41.2171 47.5299 42.5523C47.5299 43.8876 46.9995 45.1681 46.0553 46.1123Z" fill="#FF6600"/>
<path d="M37.3412 33.7659L34.4515 30.877L30.9824 34.3453L33.8486 37.2122L37.3412 33.7659Z" fill="#ADB9CA"/>
<path d="M41.3687 34.3081L34.2025 41.3764L32.6253 39.7985C32.5345 39.7076 32.4624 39.5996 32.4134 39.4808C32.3645 39.3619 32.3394 39.2346 32.3398 39.106C32.3403 38.9775 32.3661 38.8503 32.4158 38.7318C32.4656 38.6133 32.5383 38.5057 32.6297 38.4154L38.4062 32.7147C38.5895 32.5338 38.8368 32.4328 39.0943 32.4336C39.3517 32.4344 39.5984 32.5371 39.7805 32.7191L41.3687 34.3081Z" fill="#E5E8EF"/>
<path d="M41.369 34.3082L39.4793 36.17L37.9043 34.5942C37.7219 34.4124 37.4751 34.31 37.2176 34.3093C36.96 34.3086 36.7127 34.4097 36.5293 34.5905L38.405 32.7148C38.5884 32.534 38.8358 32.4329 39.0933 32.4336C39.3508 32.4343 39.5976 32.5367 39.78 32.7185L41.369 34.3082Z" fill="#CDD4DF"/>
<path d="M39.7295 20.0427C39.7295 30.8839 30.9406 39.6707 20.0986 39.6707C9.26041 39.6707 0.470703 30.8839 0.470703 20.0427C0.470703 9.20156 9.25967 0.414062 20.0986 0.414062C30.9406 0.414062 39.7295 9.20083 39.7295 20.0427Z" fill="#FF9854"/>
<path d="M33.9783 33.9217C26.3136 41.5871 13.8864 41.5871 6.21875 33.9217L33.9805 6.16211C41.6467 13.8276 41.6437 26.2562 33.9783 33.9217Z" fill="#FF6600"/>
<path d="M35.7657 20.0436C35.7657 28.6951 28.7525 35.7076 20.1003 35.7076C11.4503 35.7076 4.43555 28.6951 4.43555 20.0436C4.43555 11.3921 11.4503 4.37891 20.1003 4.37891C28.7525 4.37891 35.7657 11.3914 35.7657 20.0436Z" fill="#E5E8EF"/>
<path d="M35.7624 20.0406C35.7624 28.695 28.7477 35.7097 20.1006 35.7097C15.2698 35.7097 10.9536 33.5259 8.08594 30.092C10.7992 32.3273 14.2771 33.6656 18.0565 33.6656C26.7036 33.6656 33.7183 26.6509 33.7183 17.9964C33.7183 14.2097 32.3801 10.7391 30.1448 8.0332C33.5786 10.9009 35.7624 15.217 35.7624 20.0406Z" fill="#CDD4DF"/>
<path d="M31.6576 22.784C29.8465 25.0134 25.1781 30.0097 19.7031 30.0097C14.2289 30.0097 9.5605 25.0134 7.74947 22.784C7.28403 22.2105 7.28403 21.2524 7.74947 20.6796C9.5605 18.4494 14.2289 13.4531 19.7031 13.4531C25.1781 13.4531 29.8465 18.4494 31.6576 20.6796C32.123 21.2524 32.123 22.2105 31.6576 22.784Z" fill="#FFBE00"/>
<path d="M31.6568 22.7847C29.8443 25.0127 25.1789 30.0083 19.7031 30.0083C19.2392 30.0083 18.7781 29.9715 18.3281 29.9046C23.2024 29.1818 27.2561 24.8252 28.9097 22.7847C29.3774 22.2097 29.3774 21.2517 28.9097 20.6767C27.2561 18.6362 23.2024 14.2796 18.3281 13.5575C18.7832 13.4888 19.2428 13.4539 19.7031 13.4531C25.1789 13.4531 29.8443 18.448 31.6568 20.6767C32.1237 21.2517 32.1237 22.2097 31.6568 22.7847Z" fill="#FFA300"/>
<path d="M30.1283 22.4418C28.5489 23.947 24.4776 27.3198 19.7033 27.3198C14.929 27.3198 10.8584 23.947 9.27902 22.4418C9.18283 22.3502 9.10625 22.24 9.05392 22.1179C9.00159 21.9958 8.97461 21.8644 8.97461 21.7315C8.97461 21.5987 9.00159 21.4673 9.05392 21.3452C9.10625 21.2231 9.18283 21.1129 9.27902 21.0213C10.3334 20.0168 12.4952 18.1808 15.2371 17.0705C16.6033 16.5168 18.1151 16.1426 19.7033 16.1426C21.293 16.1426 22.8048 16.5176 24.1731 17.072C26.9128 18.1823 29.0753 20.0168 30.1283 21.0205C30.2246 21.1121 30.3013 21.2224 30.3537 21.3445C30.4061 21.4667 30.4331 21.5983 30.4331 21.7312C30.4331 21.8641 30.4061 21.9956 30.3537 22.1178C30.3013 22.24 30.2246 22.3502 30.1283 22.4418Z" fill="white"/>
<path d="M25.4851 20.7401C25.4609 22.2575 24.8411 23.7046 23.7595 24.7691C22.6779 25.8336 21.2211 26.4303 19.7035 26.4303C18.1859 26.4303 16.7291 25.8336 15.6475 24.7691C14.5659 23.7046 13.9461 22.2575 13.9219 20.7401C13.9219 19.3482 14.4145 18.0695 15.2366 17.071C16.6028 16.5181 18.1145 16.1445 19.7028 16.1445C21.2925 16.1445 22.8042 16.5181 24.1726 17.0732C25.0234 18.1056 25.4875 19.4024 25.4851 20.7401Z" fill="#6B2B00"/>
<path d="M22.4475 20.7564C22.4272 21.471 22.1291 22.1495 21.6165 22.6478C21.1039 23.1461 20.4171 23.4249 19.7023 23.4249C18.9874 23.4249 18.3006 23.1461 17.788 22.6478C17.2754 22.1495 16.9773 21.471 16.957 20.7564C16.9773 20.0418 17.2754 19.3632 17.788 18.8649C18.3006 18.3667 18.9874 18.0879 19.7023 18.0879C20.4171 18.0879 21.1039 18.3667 21.6165 18.8649C22.1291 19.3632 22.4272 20.0418 22.4475 20.7564Z" fill="#FF6600"/>
<path d="M23.1752 19.0258C23.1751 19.3884 23.031 19.736 22.7746 19.9923C22.5182 20.2486 22.1705 20.3925 21.808 20.3924C21.4454 20.3923 21.0978 20.2482 20.8415 19.9918C20.5852 19.7354 20.4413 19.3876 20.4414 19.0251C20.4414 18.6626 20.5854 18.3149 20.8418 18.0586C21.0981 17.8022 21.4458 17.6582 21.8083 17.6582C22.1708 17.6582 22.5185 17.8022 22.7749 18.0586C23.0312 18.3149 23.1752 18.6633 23.1752 19.0258Z" fill="white"/>
<path d="M25.73 9.28791C25.73 9.45409 25.6638 9.62541 25.5308 9.7585L23.4241 11.8644C23.2998 11.9903 23.1305 12.0617 22.9536 12.0629C22.8294 12.0632 22.7077 12.0288 22.6021 11.9634C22.4966 11.898 22.4115 11.8044 22.3565 11.6931C22.2293 11.4283 22.3043 11.11 22.5109 10.9026L24.5683 8.84526C24.7756 8.63791 25.094 8.56364 25.3594 8.69085C25.4709 8.74574 25.5647 8.83079 25.6302 8.93634C25.6957 9.04188 25.7303 9.16369 25.73 9.28791ZM20.1719 7.94159C20.2896 8.05923 20.3631 8.22835 20.3631 8.41512V11.3945C20.3647 11.5715 20.2959 11.7418 20.1719 11.8681C20.0843 11.956 19.9738 12.0177 19.853 12.046C19.7321 12.0744 19.6057 12.0682 19.4881 12.0284C19.2102 11.9306 19.0381 11.6534 19.0381 11.3592V8.45041C19.0381 8.15703 19.2102 7.87982 19.4874 7.78129C19.6051 7.74135 19.7317 7.73527 19.8527 7.76373C19.9737 7.7922 20.0844 7.85408 20.1719 7.94232V7.94159ZM14.3374 8.62835C14.5028 8.62835 14.6749 8.69453 14.808 8.82688L16.9138 10.9335C16.989 11.0078 17.0454 11.0989 17.0782 11.1994C17.1111 11.2998 17.1195 11.4067 17.1027 11.511C17.0859 11.6154 17.0445 11.7142 16.9819 11.7993C16.9192 11.8845 16.8372 11.9534 16.7425 12.0004C16.4771 12.1284 16.1594 12.0533 15.9513 11.846L13.8947 9.78938C13.6874 9.58203 13.6131 9.26438 13.7403 8.99894C13.7952 8.8875 13.8803 8.79369 13.9858 8.72818C14.0913 8.66267 14.2132 8.62808 14.3374 8.62835Z" fill="#FF6600"/>
</svg>
